<svg width="47" height="68" viewBox="0 0 47 68" fill="none" xmlns="http://www.w3.org/2000/svg">
<path d="M3.06799 8.78711H34.662V25.6091H3.06799V8.78711Z" fill="#2F61AB"/>
<path d="M32.269 46.6981C30.797 45.1511 28.177 44.058 25.083 43.42C24.6903 43.3407 24.3327 43.1394 24.0614 42.8446C23.79 42.5499 23.6187 42.177 23.572 41.7791L22.772 34.769H13.416L12.616 41.7791C12.5693 42.177 12.3981 42.5499 12.1267 42.8446C11.8553 43.1394 11.4977 43.3407 11.105 43.42C8.01103 44.058 5.39004 45.1511 3.91904 46.6981C0.675037 50.1091 4.58604 65.998 4.58604 65.998H31.594C31.594 65.998 35.513 50.1101 32.269 46.6981Z" fill="#FFCEBF"/>
<path d="M32.269 46.6981C30.797 45.1511 28.177 44.0581 25.083 43.4201C24.9342 43.3896 24.7895 43.3416 24.652 43.2771C22.819 45.5511 19.967 47.0541 18.098 47.0541C16.229 47.0541 13.377 45.5541 11.544 43.2771C11.4064 43.3416 11.2618 43.3896 11.113 43.4201C8.01897 44.0581 5.39797 45.1511 3.92697 46.6981C0.682972 50.1091 4.59397 67.0421 4.59397 67.0421H21.888C21.888 67.0421 35.513 50.1101 32.269 46.6981Z" fill="#01C0FA"/>
<path d="M32.269 46.6981C30.797 45.1501 28.177 44.0581 25.083 43.4201C24.9342 43.3896 24.7895 43.3416 24.652 43.2771C24.446 43.5321 24.227 43.7771 23.999 44.0121C25.8217 44.4925 27.4976 45.4155 28.878 46.6991C32.122 50.1101 28.211 65.9991 28.211 65.9991H31.603C31.603 65.9991 35.513 50.1101 32.269 46.6981Z" fill="#0290CF"/>
<path d="M19.736 41.881C21.0162 41.8404 22.286 41.6354 23.514 41.271L22.776 34.771H13.42L12.809 40.151C14.9896 41.1553 17.3392 41.7421 19.736 41.881Z" fill="#FFB09E"/>
<path d="M1.53394 25.609V9.71C1.53394 9.17561 1.63922 8.64646 1.84378 8.15278C2.04834 7.6591 2.34817 7.21056 2.72613 6.83278C3.10409 6.45501 3.55278 6.1554 4.04656 5.95108C4.54035 5.74677 5.06955 5.64174 5.60394 5.642H6.75093C6.99387 5.642 7.22686 5.54549 7.39864 5.37371C7.57043 5.20193 7.66693 4.96894 7.66693 4.726V4C7.66693 2.93913 8.08836 1.92172 8.83851 1.17157C9.58865 0.421428 10.6061 3.67951e-07 11.6669 3.67951e-07H36.5789C36.7577 -0.000131126 36.9347 0.0349824 37.0999 0.103333C37.2651 0.171683 37.4152 0.271928 37.5416 0.398335C37.668 0.524741 37.7682 0.674829 37.8366 0.840013C37.905 1.0052 37.9401 1.18223 37.9399 1.361V2.7C37.9399 5.88472 36.6748 8.939 34.4229 11.1909C32.1709 13.4429 29.1166 14.708 25.9319 14.708H21.4919V25.608L1.53394 25.609Z" fill="#2F61AB"/>
<path d="M36.5779 3.67951e-07H33.3019C33.4807 -0.000131126 33.6577 0.0349824 33.8229 0.103333C33.9881 0.171683 34.1382 0.271928 34.2646 0.398335C34.391 0.524741 34.4912 0.674829 34.5596 0.840013C34.6279 1.0052 34.663 1.18223 34.6629 1.361V2.7C34.6624 5.88455 33.3969 8.93847 31.1448 11.19C28.8927 13.4415 25.8385 14.7063 22.6539 14.706H25.9299C29.1143 14.706 32.1683 13.4411 34.4202 11.1896C36.672 8.93814 37.9374 5.88437 37.9379 2.7V1.361C37.9381 1.18232 37.903 1.00536 37.8347 0.840244C37.7664 0.675126 37.6663 0.525082 37.54 0.398689C37.4137 0.272295 37.2637 0.172029 37.0986 0.10362C36.9335 0.0352109 36.7566 3.19649e-07 36.5779 3.67951e-07Z" fill="#465A61"/>
<path d="M33.295 22.8391H27.614V28.3791H33.295C33.6588 28.3791 34.019 28.3075 34.355 28.1683C34.6911 28.0291 34.9965 27.825 35.2537 27.5678C35.5109 27.3106 35.715 27.0052 35.8542 26.6691C35.9934 26.3331 36.065 25.9729 36.065 25.6091C36.065 25.2454 35.9934 24.8851 35.8542 24.5491C35.715 24.213 35.5109 23.9076 35.2537 23.6504C34.9965 23.3932 34.6911 23.1892 34.355 23.05C34.019 22.9108 33.6588 22.8391 33.295 22.8391Z" fill="#FFCEBF"/>
<path d="M2.90099 22.8391H8.58199V28.3791H2.90099C2.53722 28.3791 2.17702 28.3075 1.84095 28.1683C1.50488 28.0291 1.19952 27.825 0.942299 27.5678C0.685081 27.3106 0.481041 27.0052 0.341835 26.6691C0.202629 26.3331 0.130981 25.9729 0.130981 25.6091C0.130981 25.2454 0.202629 24.8851 0.341835 24.5491C0.481041 24.213 0.685081 23.9076 0.942299 23.6504C1.19952 23.3932 1.50488 23.1892 1.84095 23.05C2.17702 22.9108 2.53722 22.8391 2.90099 22.8391Z" fill="#FFCEBF"/>
<path d="M30.333 32.846C28.842 36.104 21.68 38.73 18.098 38.73C14.516 38.73 7.35396 36.104 5.86296 32.846C4.71096 30.333 4.82097 25.261 5.32997 20.255C6.81885 20.255 8.24935 19.6758 9.3189 18.6401C10.3885 17.6043 11.0132 16.1931 11.061 14.705H25.927C27.3325 14.7062 28.7274 14.4605 30.048 13.979C31.04 20.37 31.984 29.24 30.333 32.846Z" fill="#FFCEBF"/>
<path d="M18.097 31.5469C17.2084 31.5499 16.3368 31.3044 15.5803 30.8383C14.8239 30.3722 14.2128 29.7039 13.816 28.9089C13.7422 28.791 13.6939 28.6589 13.6741 28.5212C13.6543 28.3835 13.6635 28.2432 13.701 28.1093C13.7385 27.9753 13.8035 27.8506 13.892 27.7433C13.9804 27.6359 14.0903 27.5481 14.2145 27.4856C14.3388 27.4231 14.4747 27.3872 14.6137 27.3802C14.7526 27.3732 14.8915 27.3952 15.0214 27.445C15.1513 27.4947 15.2694 27.571 15.3682 27.6689C15.467 27.7669 15.5442 27.8844 15.595 28.0139C15.8284 28.4767 16.1857 28.8656 16.6271 29.1374C17.0685 29.4091 17.5766 29.553 18.095 29.553C18.6133 29.553 19.1214 29.4091 19.5628 29.1374C20.0042 28.8656 20.3615 28.4767 20.595 28.0139C20.727 27.8026 20.9333 27.6482 21.1733 27.581C21.4133 27.5138 21.6697 27.5386 21.8924 27.6506C22.115 27.7626 22.2878 27.9537 22.3769 28.1865C22.466 28.4193 22.4649 28.6769 22.374 28.9089C21.9774 29.7033 21.3669 30.3712 20.6113 30.8373C19.8556 31.3033 18.9848 31.5491 18.097 31.5469Z" fill="#2F61AB"/>
<path d="M30.05 13.98C28.9927 14.3646 27.8865 14.5982 26.764 14.674C27.713 20.997 28.533 29.369 26.941 32.846C25.659 35.646 20.188 37.98 16.401 38.58C16.9629 38.6739 17.5313 38.724 18.101 38.73C21.683 38.73 28.845 36.104 30.336 32.846C31.984 29.24 31.04 20.37 30.05 13.98Z" fill="#FFB09E"/>
<path d="M11.695 23.9731C11.4298 23.9731 11.1755 23.8678 10.9879 23.6802C10.8004 23.4927 10.695 23.2383 10.695 22.9731V22.6311C10.6826 22.4928 10.6992 22.3534 10.7436 22.2219C10.788 22.0903 10.8593 21.9695 10.953 21.867C11.0467 21.7645 11.1607 21.6827 11.2878 21.6267C11.4149 21.5707 11.5522 21.5417 11.691 21.5417C11.8299 21.5417 11.9672 21.5707 12.0943 21.6267C12.2214 21.6827 12.3354 21.7645 12.4291 21.867C12.5228 21.9695 12.5941 22.0903 12.6385 22.2219C12.6829 22.3534 12.6995 22.4928 12.687 22.6311V22.9731C12.6871 23.237 12.5828 23.4901 12.397 23.6774C12.2112 23.8647 11.9589 23.971 11.695 23.9731Z" fill="#2F61AB"/>
<path d="M24.5011 23.9731C24.2359 23.9731 23.9815 23.8678 23.794 23.6802C23.6064 23.4927 23.5011 23.2383 23.5011 22.9731V22.6311C23.4887 22.4928 23.5052 22.3534 23.5496 22.2219C23.594 22.0903 23.6654 21.9695 23.7591 21.867C23.8528 21.7645 23.9668 21.6827 24.0938 21.6267C24.2209 21.5707 24.3582 21.5417 24.4971 21.5417C24.6359 21.5417 24.7733 21.5707 24.9003 21.6267C25.0274 21.6827 25.1414 21.7645 25.2351 21.867C25.3288 21.9695 25.4001 22.0903 25.4446 22.2219C25.489 22.3534 25.5055 22.4928 25.4931 22.6311V22.9731C25.4931 23.237 25.3888 23.4901 25.203 23.6774C25.0172 23.8647 24.7649 23.971 24.5011 23.9731Z" fill="#2F61AB"/>
<path d="M27.0389 43.1201V48.2961C27.0388 48.5034 26.9834 48.707 26.8783 48.8857C26.7731 49.0644 26.6222 49.2118 26.441 49.3126C26.2598 49.4135 26.055 49.4641 25.8477 49.4592C25.6404 49.4544 25.4382 49.3942 25.2619 49.285L20.6219 46.412C22.1841 45.6859 23.5615 44.6154 24.6509 43.281C24.3574 43.1446 24.104 42.9349 23.9148 42.6722C23.7257 42.4096 23.6073 42.1027 23.5709 41.781L23.4609 40.8101H24.7299C25.0333 40.8099 25.3337 40.8696 25.614 40.9856C25.8942 41.1017 26.1488 41.2718 26.3633 41.4864C26.5777 41.7009 26.7478 41.9556 26.8637 42.236C26.9797 42.5163 27.0392 42.8167 27.0389 43.1201Z" fill="#E8EDF2"/>
<path d="M15.5699 46.409L10.9299 49.282C10.7537 49.3912 10.5515 49.4513 10.3442 49.4562C10.1369 49.461 9.93206 49.4104 9.75089 49.3096C9.56971 49.2088 9.41877 49.0614 9.31364 48.8826C9.20852 48.7039 9.15304 48.5003 9.15295 48.293V43.12C9.15295 42.5079 9.39612 41.9208 9.82895 41.488C10.2618 41.0552 10.8488 40.812 11.461 40.812H12.7299L12.6199 41.783C12.5835 42.1046 12.4651 42.4115 12.2759 42.6741C12.0868 42.9368 11.8334 43.1465 11.5399 43.283C12.6303 44.6157 14.008 45.6844 15.5699 46.409Z" fill="#E8EDF2"/>
<path d="M44.4 47.459H21.818C21.2962 47.4595 20.7959 47.667 20.427 48.036C20.058 48.4049 19.8505 48.9052 19.85 49.427V65.027C19.8505 65.5488 20.058 66.049 20.427 66.418C20.7959 66.7869 21.2962 66.9945 21.818 66.995H44.4C44.9218 66.9945 45.422 66.7869 45.791 66.418C46.1599 66.049 46.3674 65.5488 46.368 65.027V49.427C46.3674 48.9052 46.1599 48.4049 45.791 48.036C45.422 47.667 44.9218 47.4595 44.4 47.459Z" fill="#FE9738"/>
<path d="M23.634 54.983C23.3688 54.983 23.1144 54.8776 22.9269 54.6901C22.7394 54.5025 22.634 54.2482 22.634 53.983V52.627C22.6216 52.4887 22.6381 52.3493 22.6825 52.2177C22.727 52.0862 22.7983 51.9653 22.892 51.8628C22.9857 51.7603 23.0997 51.6785 23.2267 51.6225C23.3538 51.5665 23.4911 51.5376 23.63 51.5376C23.7688 51.5376 23.9062 51.5665 24.0333 51.6225C24.1603 51.6785 24.2743 51.7603 24.368 51.8628C24.4617 51.9653 24.533 52.0862 24.5775 52.2177C24.6219 52.3493 24.6384 52.4887 24.626 52.627V53.983C24.626 54.2468 24.5217 54.4999 24.3359 54.6873C24.1501 54.8746 23.8978 54.9809 23.634 54.983Z" fill="black"/>
<path d="M23.634 62.817C23.3688 62.817 23.1144 62.7116 22.9269 62.524C22.7394 62.3365 22.634 62.0822 22.634 61.817V60.4609C22.6216 60.3226 22.6381 60.1833 22.6825 60.0517C22.727 59.9202 22.7983 59.7993 22.892 59.6968C22.9857 59.5943 23.0997 59.5125 23.2267 59.4565C23.3538 59.4005 23.4911 59.3716 23.63 59.3716C23.7688 59.3716 23.9062 59.4005 24.0333 59.4565C24.1603 59.5125 24.2743 59.5943 24.368 59.6968C24.4617 59.7993 24.533 59.9202 24.5775 60.0517C24.6219 60.1833 24.6384 60.3226 24.626 60.4609V61.817C24.626 62.0808 24.5217 62.3339 24.3359 62.5212C24.1501 62.7085 23.8978 62.8148 23.634 62.817Z" fill="black"/>
<path d="M23.6909 58.2221H23.575C23.3262 58.1998 23.0948 58.0852 22.9263 57.9009C22.7578 57.7165 22.6643 57.4758 22.6643 57.2261C22.6643 56.9763 22.7578 56.7356 22.9263 56.5513C23.0948 56.367 23.3262 56.2524 23.575 56.2301H23.6909C23.8292 56.2177 23.9686 56.2342 24.1002 56.2786C24.2317 56.323 24.3526 56.3943 24.4551 56.488C24.5576 56.5817 24.6394 56.6958 24.6954 56.8228C24.7514 56.9499 24.7803 57.0872 24.7803 57.2261C24.7803 57.3649 24.7514 57.5023 24.6954 57.6293C24.6394 57.7564 24.5576 57.8704 24.4551 57.9641C24.3526 58.0578 24.2317 58.1291 24.1002 58.1735C23.9686 58.2179 23.8292 58.2345 23.6909 58.2221Z" fill="#2F61AB"/>
<path d="M45.372 65.028V49.428C45.372 49.1702 45.2696 48.923 45.0873 48.7408C44.905 48.5585 44.6578 48.4561 44.4 48.4561H27.394C27.1362 48.4561 26.889 48.5585 26.7067 48.7408C26.5244 48.923 26.422 49.1702 26.422 49.428V65.028C26.422 65.2858 26.5244 65.5331 26.7067 65.7154C26.889 65.8976 27.1362 66.0001 27.394 66.0001H44.401C44.6586 65.9998 44.9056 65.8973 45.0877 65.715C45.2697 65.5327 45.372 65.2857 45.372 65.028Z" fill="#2F61AB"/>
<path d="M44.4 48.4551H41.213C41.4708 48.4551 41.718 48.5575 41.9003 48.7398C42.0826 48.9221 42.185 49.1693 42.185 49.4271V65.0271C42.185 65.2849 42.0826 65.5321 41.9003 65.7144C41.718 65.8967 41.4708 65.9991 41.213 65.9991H44.4C44.6578 65.9991 44.9051 65.8967 45.0873 65.7144C45.2696 65.5321 45.372 65.2849 45.372 65.0271V49.4281C45.3722 49.3003 45.3471 49.1739 45.2983 49.0558C45.2496 48.9378 45.1779 48.8305 45.0877 48.7401C44.9974 48.6498 44.8902 48.5781 44.7722 48.5292C44.6542 48.4803 44.5278 48.4551 44.4 48.4551Z" fill="#465A61"/>
<path d="M41.599 57.7091C41.2993 59.0113 40.8 60.2594 40.119 61.4091C40.0642 61.5141 39.9817 61.6021 39.8804 61.6635C39.7791 61.7248 39.6629 61.7573 39.5445 61.7573C39.4261 61.7573 39.3099 61.7248 39.2086 61.6635C39.1073 61.6021 39.0248 61.5141 38.97 61.4091C38.289 60.2594 37.7897 59.0113 37.49 57.7091V39.2181C37.49 38.6732 37.7064 38.1506 38.0917 37.7653C38.477 37.38 38.9996 37.1636 39.5445 37.1636C40.0894 37.1636 40.612 37.38 40.9973 37.7653C41.3825 38.1506 41.599 38.6732 41.599 39.2181V57.7091Z" fill="#E8EDF2"/>
<path d="M39.544 37.1641C38.9993 37.1641 38.4768 37.3805 38.0916 37.7657C37.7064 38.1509 37.49 38.6733 37.49 39.2181V42.5101H41.599V39.2181C41.599 38.9483 41.5458 38.6811 41.4425 38.4318C41.3392 38.1825 41.1879 37.9561 40.997 37.7653C40.8062 37.5746 40.5796 37.4233 40.3303 37.3201C40.081 37.217 39.8138 37.1639 39.544 37.1641Z" fill="#9FACBA"/>
<path d="M40.119 61.4051C40.8 60.2554 41.2993 59.0073 41.599 57.7051H37.49C37.7897 59.0073 38.2889 60.2554 38.97 61.4051C39.0248 61.5101 39.1073 61.5981 39.2086 61.6595C39.3099 61.7209 39.4261 61.7533 39.5445 61.7533C39.6629 61.7533 39.7791 61.7209 39.8804 61.6595C39.9817 61.5981 40.0642 61.5101 40.119 61.4051Z" fill="#C5D3DD"/>
</svg>
