<svg width="60" height="59" viewBox="0 0 60 59" fill="none" xmlns="http://www.w3.org/2000/svg">
<path d="M55.093 0H0.917969V49.159L9.94697 58.188H55.093V0Z" fill="#2F61AB"/>
<path d="M6.93701 6.01904H31.015V42.136H6.93701V6.01904Z" fill="#EAAE48"/>
<path d="M17.973 6.01904H19.98V42.136H17.973V6.01904Z" fill="#CE892A"/>
<path d="M9.94702 42.136H11.954V45.146H9.94702V42.136Z" fill="#CE892A"/>
<path d="M25.999 42.136H28.005V45.146H25.999V42.136Z" fill="#CE892A"/>
<path d="M21.986 23.074H23.993V25.081H21.986V23.074Z" fill="#CE892A"/>
<path d="M13.96 23.074H15.967V25.081H13.96V23.074Z" fill="#CE892A"/>
<path d="M31.015 28.0911H49.073V32.1041H31.015V28.0911Z" fill="#0093B9"/>
<path d="M31.015 32.104H49.073V42.136H31.015V32.104Z" fill="#0784A9"/>
<path d="M35.028 36.1169H37.0349V38.123H35.028V36.1169Z" fill="#067A98"/>
<path d="M43.054 36.1169H45.06V38.123H43.054V36.1169Z" fill="#067A98"/>
<path d="M45.0609 42.136H47.0669V45.146H45.0609V42.136Z" fill="#0093B9"/>
<path d="M34.025 42.136H36.032V45.146H34.025V42.136Z" fill="#0093B9"/>
<path d="M39.041 32.104H41.047V42.136H39.041V32.104Z" fill="#067A98"/>
<path d="M36.0649 18.269L38.0328 17.8759L39.3656 24.5467L37.3977 24.9398L36.0649 18.269Z" fill="#85BB40"/>
<path d="M40.7419 24.512L42.0747 17.8412L44.0426 18.2343L42.7098 24.9051L40.7419 24.512Z" fill="#85BB40"/>
<path d="M36.032 6.01904H49.074V14.045H36.032V6.01904Z" fill="#85BB40"/>
<path d="M43.055 28.091H37.032L36.032 23.075H44.058L43.055 28.091Z" fill="#EAAE48"/>
<path d="M9.94697 58.1879V49.1589H0.917969L9.94697 58.1879Z" fill="#B3B1B3"/>
<path d="M57.1759 51.1629L17.0979 53.1939L14.9929 51.2939L16.8929 49.1939L56.9729 47.1519C57.2361 47.1388 57.4993 47.1776 57.7474 47.2662C57.9956 47.3548 58.2239 47.4913 58.4193 47.6681C58.6146 47.8449 58.7733 48.0585 58.8861 48.2966C58.999 48.5347 59.0638 48.7927 59.0769 49.0559C59.0901 49.3191 59.0512 49.5822 58.9626 49.8304C58.8741 50.0786 58.7375 50.3069 58.5607 50.5022C58.3839 50.6976 58.1703 50.8563 57.9322 50.9691C57.6941 51.0819 57.4361 51.1468 57.1729 51.1599L57.1759 51.1629Z" fill="#FBBE1F"/>
<path d="M19.927 49.0391L21.9314 48.9368L22.136 52.9445L20.1316 53.0468L19.927 49.0391Z" fill="#F79726"/>
</svg>
