<svg width="47" height="47" viewBox="0 0 47 47" fill="none" xmlns="http://www.w3.org/2000/svg">
<path d="M23.5 46.9824C18.8521 46.9824 14.3087 45.6041 10.4441 43.0219C6.57955 40.4397 3.5675 36.7695 1.78884 32.4754C0.0101827 28.1814 -0.455196 23.4563 0.451555 18.8977C1.35831 14.3392 3.59646 10.1519 6.88299 6.86536C11.2917 2.46599 17.2666 -0.00330163 23.4948 3.31328e-06C29.7231 0.00330826 35.6953 2.47894 40.0994 6.88299C44.5034 11.287 46.979 17.2593 46.9824 23.4875C46.9857 29.7158 44.5164 35.6906 40.117 40.0994C37.9399 42.2884 35.3503 44.0239 32.4979 45.2053C29.6456 46.3868 26.5873 46.9908 23.5 46.9824ZM10.968 16.5914C10.9517 16.5914 10.9356 16.5946 10.9206 16.6009C10.9056 16.6072 10.892 16.6165 10.8806 16.6282C10.8693 16.6398 10.8604 16.6536 10.8544 16.6688C10.8485 16.6839 10.8456 16.7001 10.846 16.7164V30.2944C10.8465 30.8196 11.0554 31.3232 11.4268 31.6946C11.7982 32.066 12.3018 32.2748 12.827 32.2754H34.627C35.1508 32.2727 35.6524 32.0629 36.022 31.6917C36.3917 31.3206 36.5995 30.8182 36.6 30.2944V16.7164C36.5999 16.7001 36.5965 16.6841 36.5902 16.6691C36.5838 16.6542 36.5745 16.6407 36.5629 16.6293C36.5513 16.618 36.5375 16.6091 36.5224 16.6031C36.5074 16.5971 36.4912 16.5941 36.475 16.5944C36.4591 16.5942 36.4433 16.5973 36.4285 16.6033C36.4137 16.6093 36.4003 16.6182 36.389 16.6294L29.727 23.4164C29.7152 23.4275 29.7058 23.4409 29.6994 23.4558C29.693 23.4706 29.6897 23.4867 29.6897 23.5029C29.6897 23.5191 29.693 23.5351 29.6994 23.55C29.7058 23.5648 29.7152 23.5782 29.727 23.5894L34.389 28.5554C34.4643 28.6298 34.524 28.7184 34.5648 28.816C34.6056 28.9137 34.6266 29.0185 34.6266 29.1244C34.6266 29.2302 34.6056 29.335 34.5648 29.4327C34.524 29.5304 34.4643 29.619 34.389 29.6934C34.2379 29.8443 34.033 29.929 33.8195 29.929C33.6059 29.929 33.4011 29.8443 33.25 29.6934L28.606 24.7474C28.5822 24.7237 28.55 24.7105 28.5165 24.7105C28.483 24.7105 28.4508 24.7237 28.427 24.7474L27.3 25.8984C26.8366 26.3716 26.2838 26.7479 25.6737 27.0054C25.0635 27.2629 24.4083 27.3965 23.746 27.3984H23.724C23.0511 27.3911 22.3862 27.2511 21.7674 26.9865C21.1486 26.7219 20.5881 26.3379 20.118 25.8564L19.028 24.7484C19.004 24.7247 18.9717 24.7114 18.938 24.7114C18.9043 24.7114 18.872 24.7247 18.848 24.7484L14.2 29.6934C14.0489 29.8443 13.844 29.929 13.6305 29.929C13.4169 29.929 13.2121 29.8443 13.061 29.6934C12.9857 29.619 12.9259 29.5304 12.8851 29.4327C12.8443 29.335 12.8233 29.2302 12.8233 29.1244C12.8233 29.0185 12.8443 28.9137 12.8851 28.816C12.9259 28.7184 12.9857 28.6298 13.061 28.5554L17.723 23.5894C17.7438 23.5654 17.7553 23.5346 17.7553 23.5029C17.7553 23.4711 17.7438 23.4404 17.723 23.4164L11.055 16.6294C11.0437 16.6176 11.0302 16.6082 11.0153 16.6017C11.0003 16.5952 10.9843 16.5917 10.968 16.5914ZM12.821 14.4444C12.3743 14.444 11.9411 14.5972 11.594 14.8784L21.309 24.7654C21.6242 25.0871 22.0004 25.3427 22.4156 25.5171C22.8308 25.6916 23.2766 25.7815 23.727 25.7815C24.1774 25.7815 24.6232 25.6916 25.0384 25.5171C25.4536 25.3427 25.8298 25.0871 26.145 24.7654L35.86 14.8824C35.5134 14.6011 35.0804 14.4478 34.634 14.4484L12.821 14.4444Z" fill="#2F61AB"/>
</svg>
