<svg width="47" height="47" viewBox="0 0 47 47" fill="none" xmlns="http://www.w3.org/2000/svg">
<path d="M23.5 46.9824C18.8521 46.9824 14.3087 45.6041 10.4441 43.0219C6.57955 40.4397 3.5675 36.7695 1.78884 32.4754C0.0101827 28.1814 -0.455196 23.4563 0.451555 18.8977C1.35831 14.3392 3.59646 10.1519 6.88299 6.86536C11.2917 2.46599 17.2666 -0.00330163 23.4948 3.31328e-06C29.7231 0.00330826 35.6953 2.47894 40.0994 6.88299C44.5034 11.287 46.979 17.2593 46.9824 23.4875C46.9857 29.7158 44.5164 35.6906 40.117 40.0994C37.9399 42.2884 35.3503 44.0239 32.4979 45.2053C29.6456 46.3868 26.5873 46.9908 23.5 46.9824ZM26.456 34.8824C27.3472 35.5707 28.4136 35.9953 29.534 36.108C30.6544 36.2206 31.784 36.0167 32.7943 35.5194C33.8047 35.0221 34.6553 34.2515 35.2495 33.295C35.8438 32.3385 36.1578 31.2344 36.156 30.1084C36.1635 28.7815 35.7238 27.4908 34.908 26.4444C35.0719 25.6693 35.1567 24.8796 35.161 24.0874C35.1576 21.1578 33.9921 18.3492 31.9202 16.278C29.8484 14.2067 27.0396 13.042 24.11 13.0394C23.318 13.0414 22.5284 13.1262 21.754 13.2924C20.7035 12.4742 19.4095 12.031 18.078 12.0334C16.4801 12.0352 14.9482 12.6708 13.8183 13.8007C12.6884 14.9306 12.0528 16.4625 12.051 18.0604C12.0476 19.3894 12.489 20.6813 13.305 21.7304C13.141 22.5054 13.0563 23.2952 13.052 24.0874C13.0552 27.0165 14.2202 29.8248 16.2914 31.896C18.3626 33.9672 21.1709 35.1322 24.1 35.1354C24.8923 35.1333 25.6823 35.0485 26.457 34.8824H26.456ZM24.433 31.3684C22.8505 31.3983 21.2842 31.046 19.867 30.3414C19.3527 30.1426 18.9023 29.8074 18.5642 29.3719C18.2261 28.9363 18.013 28.4169 17.948 27.8694C17.9301 27.6536 17.9585 27.4365 18.0312 27.2326C18.1038 27.0286 18.2191 26.8425 18.3694 26.6866C18.5197 26.5308 18.7015 26.4088 18.9026 26.3287C19.1038 26.2486 19.3197 26.2124 19.536 26.2224C19.8658 26.2543 20.185 26.3565 20.472 26.5221C20.759 26.6877 21.0072 26.9128 21.2 27.1824C21.567 27.6437 22.035 28.0148 22.5679 28.2668C23.1008 28.5189 23.6845 28.6453 24.274 28.6364C25.614 28.6364 26.55 28.0544 26.55 27.2214C26.55 26.2664 25.779 26.0774 24.502 25.7654L24.29 25.7134C23.99 25.6394 23.69 25.5684 23.396 25.4994C22.055 25.2692 20.7587 24.8288 19.555 24.1944C19.0242 23.862 18.5945 23.3907 18.3125 22.8316C18.0304 22.2724 17.9068 21.6468 17.955 21.0224C17.9413 20.3391 18.1122 19.6648 18.4496 19.0705C18.7869 18.4762 19.2783 17.9839 19.872 17.6454C21.077 16.9652 22.4437 16.6238 23.827 16.6574C26.694 16.6574 29.789 17.7974 29.789 19.6394C29.8013 19.8604 29.7682 20.0817 29.6917 20.2895C29.6152 20.4973 29.4969 20.6872 29.3442 20.8475C29.1914 21.0078 29.0075 21.1352 28.8036 21.2216C28.5998 21.3081 28.3804 21.3519 28.159 21.3504C27.8738 21.3354 27.5948 21.2619 27.3392 21.1346C27.0836 21.0073 26.8568 20.8289 26.673 20.6104C26.3483 20.2614 25.9526 19.9859 25.5126 19.8026C25.0726 19.6192 24.5984 19.5322 24.122 19.5474C22.644 19.5474 21.862 19.9664 21.862 20.7584C21.862 21.6964 22.757 21.8974 24.717 22.3374C24.984 22.3974 25.272 22.4624 25.581 22.5374C27.853 23.0474 30.462 23.9834 30.462 26.7134C30.4716 27.4141 30.3014 28.1055 29.9678 28.7218C29.6341 29.338 29.148 29.8584 28.556 30.2334C27.3224 31.0073 25.8889 31.4022 24.433 31.3694V31.3684Z" fill="#2F61AB"/>
</svg>
