<svg width="21" height="20" viewBox="0 0 21 20" fill="none" xmlns="http://www.w3.org/2000/svg">
<path d="M19.6351 11.958C19.771 11.3148 19.8414 10.6594 19.8451 10.002C19.8456 8.79804 19.6088 7.60577 19.1483 6.49334C18.6878 5.38091 18.0126 4.37014 17.1613 3.5188C16.3099 2.66746 15.2992 1.99224 14.1867 1.53174C13.0743 1.07125 11.882 0.834493 10.6781 0.835019C10.0205 0.836698 9.36496 0.907081 8.72206 1.04502C7.76127 0.304287 6.56373 -0.0614554 5.35303 0.0160761C4.14233 0.0936075 3.00123 0.609113 2.14278 1.46635C1.28432 2.32358 0.767183 3.46394 0.687924 4.67453C0.608664 5.88512 0.972696 7.08317 1.71206 8.04502C1.57607 8.68824 1.50571 9.34359 1.50206 10.001C1.5014 11.2052 1.73812 12.3978 2.19869 13.5105C2.65925 14.6231 3.33462 15.6341 4.18619 16.4856C5.03775 17.3371 6.0488 18.0123 7.16153 18.4728C8.27425 18.9332 9.46683 19.1698 10.6711 19.169C11.3286 19.1673 11.9841 19.097 12.6271 18.959C13.3665 19.5288 14.2507 19.88 15.1796 19.9728C16.1084 20.0656 17.0447 19.8962 17.8822 19.4839C18.7197 19.0717 19.4249 18.4329 19.9179 17.6402C20.4108 16.8475 20.6717 15.9325 20.6711 14.999C20.6753 13.8981 20.3105 12.8274 19.6351 11.958ZM10.9461 16.044C8.01706 16.044 5.56506 14.744 5.56506 13.144C5.54888 12.9648 5.57145 12.7841 5.63122 12.6144C5.691 12.4446 5.78659 12.2897 5.9115 12.1602C6.03642 12.0306 6.18774 11.9294 6.3552 11.8635C6.52266 11.7975 6.70234 11.7684 6.88206 11.778C8.27506 11.778 8.40506 13.778 10.8161 13.778C11.9641 13.778 12.7051 13.269 12.7051 12.604C12.7051 11.769 11.9911 11.64 10.8301 11.354C8.03906 10.666 5.57006 10.372 5.57006 7.46002C5.57106 4.81802 8.18606 3.84002 10.4411 3.84002C12.9011 3.84002 15.3891 4.81802 15.3891 6.31402C15.3993 6.49753 15.3718 6.68119 15.3084 6.85368C15.2449 7.02616 15.1467 7.1838 15.0199 7.31687C14.8931 7.44993 14.7404 7.5556 14.5712 7.62735C14.402 7.69909 14.2198 7.7354 14.0361 7.73402C12.7721 7.73402 12.7361 6.23402 10.6871 6.23402C9.53906 6.23402 8.81206 6.54702 8.81206 7.23402C8.81206 8.11802 9.74106 8.20702 11.8981 8.70802C13.7471 9.12302 15.9481 9.90802 15.9481 12.173C15.9481 14.812 13.3981 16.035 10.9481 16.035L10.9461 16.044Z" fill="#727272"/>
</svg>
