<svg width="12" height="11" viewBox="0 0 12 11" fill="none" xmlns="http://www.w3.org/2000/svg">
<path d="M11.097 3.70741H7.309L6.159 0.273415C6.1296 0.193235 6.07628 0.124018 6.00626 0.0751197C5.93625 0.0262214 5.8529 0 5.7675 0C5.6821 0 5.59876 0.0262214 5.52874 0.0751197C5.45872 0.124018 5.40541 0.193235 5.376 0.273415L4.225 3.70741H0.412002C0.302814 3.70768 0.198174 3.75117 0.120966 3.82838C0.043758 3.90559 0.000266347 4.01023 2.28821e-06 4.11941C-8.97548e-05 4.14298 0.00259532 4.16648 0.00800219 4.18941C0.0138079 4.24762 0.0323081 4.30384 0.0621988 4.35412C0.0920895 4.4044 0.132643 4.44751 0.181002 4.48041L3.294 6.67441L2.098 10.1474C2.06991 10.2297 2.06852 10.3188 2.09402 10.4019C2.11952 10.485 2.1706 10.558 2.24 10.6104C2.3045 10.6679 2.3859 10.703 2.472 10.7104C2.56464 10.7039 2.65364 10.6717 2.729 10.6174L5.767 8.45241L8.805 10.6174C8.8799 10.6726 8.96916 10.7049 9.062 10.7104C9.14762 10.7046 9.22857 10.6693 9.291 10.6104C9.36102 10.5585 9.41257 10.4856 9.43813 10.4023C9.46368 10.3189 9.46188 10.2296 9.433 10.1474L8.238 6.67441L11.325 4.46041L11.4 4.39641C11.4623 4.3412 11.5056 4.26766 11.5235 4.18635C11.5414 4.10504 11.5331 4.02014 11.4998 3.94383C11.4665 3.86753 11.4098 3.80374 11.338 3.76162C11.2662 3.71951 11.1829 3.70123 11.1 3.70941L11.097 3.70741Z" fill="#FFD700"/>
</svg>
