<svg width="47" height="47" viewBox="0 0 47 47" fill="none" xmlns="http://www.w3.org/2000/svg">
<path d="M23.5 46.9824C18.8521 46.9824 14.3087 45.6041 10.4441 43.0219C6.57955 40.4397 3.5675 36.7695 1.78884 32.4754C0.0101827 28.1814 -0.455196 23.4563 0.451555 18.8977C1.35831 14.3392 3.59646 10.1519 6.88299 6.86536C11.2917 2.46599 17.2666 -0.00330163 23.4948 3.31328e-06C29.7231 0.00330826 35.6953 2.47894 40.0994 6.88299C44.5034 11.287 46.979 17.2593 46.9824 23.4875C46.9857 29.7158 44.5164 35.6906 40.117 40.0994C37.9399 42.2884 35.3503 44.0239 32.4979 45.2053C29.6456 46.3868 26.5873 46.9908 23.5 46.9824ZM24.321 12.0324C21.1957 12.0236 18.1947 13.255 15.9763 15.4563C13.7579 17.6577 12.5033 20.6491 12.488 23.7744C12.4878 25.9127 13.0759 28.0099 14.188 29.8364L12.052 36.1364L18.6 34.0554C20.1705 34.941 21.9234 35.454 23.7236 35.5548C25.5237 35.6556 27.323 35.3415 28.9825 34.6367C30.642 33.9319 32.1174 32.8552 33.2949 31.4898C34.4724 30.1244 35.3204 28.5068 35.7736 26.7617C36.2268 25.0166 36.273 23.1907 35.9087 21.4249C35.5444 19.6591 34.7793 18.0006 33.6724 16.5774C32.5655 15.1542 31.1465 14.0043 29.5247 13.2164C27.903 12.4285 26.122 12.0238 24.319 12.0334L24.321 12.0324ZM27.494 29.6624C26.4502 29.528 25.4405 29.2012 24.516 28.6984C22.4548 27.6768 20.7409 26.0697 19.589 24.0784C19.559 24.0304 19.538 23.9974 19.527 23.9784C18.8494 23.0646 18.4607 21.9689 18.411 20.8324C18.4179 20.379 18.5181 19.9319 18.7055 19.5189C18.8929 19.106 19.1633 18.7361 19.5 18.4324L19.562 18.3714C19.6691 18.2626 19.7968 18.1761 19.9375 18.1169C20.0782 18.0577 20.2293 18.0269 20.382 18.0264C20.524 18.0264 20.632 18.0264 20.732 18.0264C20.814 18.0264 20.884 18.0264 20.951 18.0264H20.992C21.168 18.0264 21.409 18.0344 21.621 18.5974C21.698 18.8024 21.812 19.1094 21.931 19.4314C22.162 20.0544 22.422 20.7564 22.469 20.8564C22.5134 20.9367 22.5372 21.0269 22.538 21.1187C22.5389 21.2106 22.5169 21.3012 22.474 21.3824L22.428 21.4654C22.356 21.6129 22.263 21.7493 22.152 21.8704C22.099 21.9274 22.044 21.9894 21.989 22.0504C21.882 22.1694 21.773 22.2924 21.68 22.3784C21.528 22.5164 21.356 22.6724 21.523 22.9854C21.9482 23.7726 22.4874 24.4927 23.123 25.1224C23.7597 25.7374 24.4957 26.2405 25.3 26.6104C25.383 26.6494 25.448 26.6804 25.5 26.7104C25.6026 26.7743 25.7194 26.8117 25.84 26.8194C25.9012 26.8173 25.9612 26.802 26.0159 26.7746C26.0706 26.7472 26.1188 26.7082 26.157 26.6604C26.313 26.4964 26.94 25.8214 27.157 25.5224C27.1924 25.4599 27.2431 25.4074 27.3043 25.3698C27.3655 25.3322 27.4352 25.3107 27.507 25.3074C27.6235 25.3162 27.7374 25.3464 27.843 25.3964C28.125 25.5104 29.649 26.3294 29.87 26.4484L30.028 26.5324C30.24 26.6434 30.378 26.7164 30.436 26.8204C30.5009 27.3049 30.4213 27.7979 30.207 28.2374C29.9702 28.5946 29.6616 28.8986 29.3009 29.1302C28.9403 29.3617 28.5354 29.5157 28.112 29.5824C28.0262 29.5881 27.9409 29.6005 27.857 29.6194C27.7379 29.6468 27.6162 29.6613 27.494 29.6624Z" fill="#2F61AB"/>
</svg>
