<svg width="22" height="16" viewBox="0 0 22 16" fill="none" xmlns="http://www.w3.org/2000/svg">
<path d="M21.8229 2.41493L16.2949 8.04592C16.2853 8.05525 16.2776 8.06644 16.2723 8.07881C16.267 8.09118 16.2643 8.10448 16.2643 8.11793C16.2643 8.13137 16.267 8.14467 16.2723 8.15704C16.2776 8.16941 16.2853 8.1806 16.2949 8.18993L20.1639 12.3099C20.2261 12.3719 20.2755 12.4455 20.3092 12.5266C20.3428 12.6077 20.3602 12.6946 20.3602 12.7824C20.3602 12.8702 20.3428 12.9572 20.3092 13.0382C20.2755 13.1193 20.2261 13.193 20.1639 13.2549C20.0384 13.3798 19.8685 13.4499 19.6914 13.4499C19.5144 13.4499 19.3445 13.3798 19.2189 13.2549L15.3659 9.14992C15.3562 9.1401 15.3446 9.1323 15.3318 9.12698C15.319 9.12166 15.3053 9.11892 15.2914 9.11892C15.2776 9.11892 15.2639 9.12166 15.2511 9.12698C15.2383 9.1323 15.2267 9.1401 15.2169 9.14992L14.2769 10.1059C13.8926 10.4986 13.4338 10.8107 12.9275 11.0241C12.4212 11.2375 11.8774 11.348 11.3279 11.3489C10.766 11.347 10.2101 11.2329 9.69292 11.0133C9.1757 10.7936 8.70755 10.4729 8.31594 10.0699L7.41594 9.14992C7.40618 9.1401 7.39457 9.1323 7.38179 9.12698C7.369 9.12166 7.35529 9.11892 7.34144 9.11892C7.32759 9.11892 7.31388 9.12166 7.30109 9.12698C7.28831 9.1323 7.2767 9.1401 7.26694 9.14992L3.40994 13.2559C3.28439 13.3808 3.11452 13.4509 2.93744 13.4509C2.76036 13.4509 2.59049 13.3808 2.46494 13.2559C2.40275 13.194 2.3534 13.1203 2.31972 13.0392C2.28605 12.9582 2.26872 12.8712 2.26872 12.7834C2.26872 12.6956 2.28605 12.6087 2.31972 12.5276C2.3534 12.4465 2.40275 12.3729 2.46494 12.3109L6.33394 8.19093C6.35145 8.17103 6.3611 8.14543 6.3611 8.11892C6.3611 8.09242 6.35145 8.06682 6.33394 8.04693L0.79994 2.41493C0.78619 2.39925 0.767883 2.38826 0.747579 2.3835C0.727276 2.37874 0.705993 2.38045 0.686708 2.38838C0.667422 2.39632 0.6511 2.41008 0.640025 2.42775C0.628949 2.44542 0.623675 2.46611 0.62494 2.48692V13.7539C0.626259 14.1895 0.799889 14.6069 1.10791 14.915C1.41594 15.223 1.83333 15.3966 2.26894 15.3979H20.3499C20.7856 15.3966 21.2029 15.223 21.511 14.915C21.819 14.6069 21.9926 14.1895 21.9939 13.7539V2.48692C21.9943 2.46698 21.9886 2.44739 21.9777 2.43068C21.9668 2.41398 21.9511 2.40091 21.9328 2.39317C21.9144 2.38543 21.8941 2.38336 21.8745 2.38724C21.8549 2.39112 21.837 2.40076 21.8229 2.41493Z" fill="#727272"/>
<path d="M11.3118 10.0089C11.686 10.0103 12.0567 9.93652 12.4018 9.79187C12.7469 9.64723 13.0594 9.43472 13.3208 9.16694L21.3818 0.966944C21.0941 0.733916 20.7351 0.606822 20.3648 0.606944H2.26383C1.89337 0.60559 1.53393 0.732827 1.24683 0.966944L9.30783 9.16694C9.56863 9.43411 9.88035 9.64628 10.2246 9.7909C10.5688 9.93552 10.9385 10.0097 11.3118 10.0089Z" fill="#727272"/>
</svg>
