<svg width="21" height="20" viewBox="0 0 21 20" fill="none" xmlns="http://www.w3.org/2000/svg">
<path d="M10.347 -4.79611e-05C7.7531 -0.00987991 5.26151 1.01106 3.4203 2.8382C1.57909 4.66535 0.539075 7.14904 0.529016 9.74295C0.526727 11.5177 1.01429 13.2586 1.93802 14.774L0.166016 20L5.60202 18.273C7.09274 19.0905 8.76996 19.5077 10.47 19.4838C12.17 19.4598 13.8348 18.9956 15.3019 18.1363C16.769 17.277 17.9883 16.0521 18.8408 14.5811C19.6933 13.11 20.1499 11.4431 20.166 9.74295C20.161 8.45849 19.9031 7.18759 19.407 6.00281C18.9108 4.81803 18.1862 3.74257 17.2744 2.83785C16.3626 1.93313 15.2815 1.21685 14.0929 0.729925C12.9043 0.242997 11.6315 -0.0050479 10.347 -4.79611e-05ZM15.229 13.442C15.0342 13.7399 14.7789 13.9936 14.4796 14.1864C14.1804 14.3792 13.8439 14.5068 13.492 14.561C13.032 14.585 13.018 14.918 10.508 13.827C8.78605 12.9398 7.35088 11.5827 6.36902 9.91295C5.81142 9.15241 5.48943 8.24486 5.44302 7.30295C5.45116 6.91488 5.54043 6.53281 5.70507 6.18131C5.86972 5.8298 6.1061 5.51664 6.39902 5.26195C6.48797 5.17188 6.59382 5.10026 6.71051 5.05118C6.8272 5.0021 6.95243 4.97654 7.07902 4.97595C7.27902 4.97595 7.40502 4.96995 7.55102 4.97595C7.69702 4.98195 7.91602 4.94995 8.10702 5.44995C8.29802 5.94995 8.75202 7.19795 8.80702 7.32495C8.84351 7.39182 8.86264 7.46677 8.86264 7.54295C8.86264 7.61913 8.84351 7.69409 8.80702 7.76095C8.73808 7.90793 8.64851 8.0443 8.54102 8.16595C8.41002 8.30695 8.26502 8.47995 8.14902 8.58795C8.03302 8.69595 7.88202 8.83695 8.02002 9.08795C8.37287 9.74174 8.82074 10.3396 9.34902 10.862C9.92451 11.4091 10.5908 11.852 11.318 12.171C11.564 12.305 11.711 12.29 11.864 12.13C12.017 11.97 12.518 11.43 12.694 11.185C12.87 10.94 13.036 10.985 13.263 11.085C13.49 11.185 14.699 11.824 14.945 11.958C15.191 12.092 15.355 12.158 15.414 12.266C15.4696 12.6675 15.4056 13.0766 15.23 13.442H15.229Z" fill="#727272"/>
</svg>
