<svg width="19" height="19" viewBox="0 0 19 19" fill="none" xmlns="http://www.w3.org/2000/svg">
<path d="M13.4091 8.62488H10.0621V5.27788C10.0551 5.09196 9.97641 4.91597 9.84242 4.78689C9.70844 4.65781 9.52963 4.58569 9.34358 4.58569C9.15753 4.58569 8.97873 4.65781 8.84474 4.78689C8.71075 4.91597 8.63202 5.09196 8.62508 5.27788V8.62488H5.27808C5.18249 8.62047 5.08703 8.63605 4.9978 8.67062C4.90856 8.70519 4.82753 8.758 4.75986 8.82566C4.69219 8.89333 4.63939 8.97437 4.60482 9.0636C4.57024 9.15283 4.55467 9.24829 4.55908 9.34388C4.55646 9.43902 4.57327 9.53368 4.60848 9.6221C4.64368 9.71052 4.69655 9.79083 4.76384 9.85812C4.83114 9.92542 4.91145 9.97828 4.99986 10.0135C5.08828 10.0487 5.18295 10.0655 5.27808 10.0629H8.62508V13.4099C8.62246 13.505 8.63927 13.5997 8.67448 13.6881C8.70968 13.7765 8.76255 13.8568 8.82984 13.9241C8.89714 13.9914 8.97745 14.0443 9.06586 14.0795C9.15428 14.1147 9.24895 14.1315 9.34408 14.1289C9.43865 14.1294 9.53239 14.1112 9.61986 14.0752C9.70733 14.0393 9.7868 13.9863 9.85367 13.9195C9.92055 13.8526 9.97349 13.7731 10.0094 13.6857C10.0454 13.5982 10.0636 13.5045 10.0631 13.4099V10.0619H13.4101C13.596 10.0549 13.772 9.97621 13.9011 9.84223C14.0302 9.70824 14.1023 9.52943 14.1023 9.34338C14.1023 9.15733 14.0302 8.97853 13.9011 8.84454C13.772 8.71056 13.596 8.63182 13.4101 8.62488H13.4091Z" fill="#949494"/>
<path d="M9.343 1.258C11.2127 1.25877 13.0243 1.90776 14.4691 3.09439C15.914 4.28103 16.9027 5.93191 17.2669 7.76578C17.6311 9.59965 17.3481 11.5031 16.4663 13.1517C15.5845 14.8004 14.1584 16.0924 12.4309 16.8075C10.7034 17.5226 8.78135 17.6166 6.99227 17.0736C5.20319 16.5305 3.65773 15.384 2.61918 13.8293C1.58064 12.2746 1.11325 10.4079 1.29666 8.54721C1.48006 6.68655 2.3029 4.94703 3.625 3.625C4.37422 2.87194 5.26538 2.27499 6.24688 1.86869C7.22839 1.46239 8.28074 1.25482 9.343 1.258ZM9.343 5.35324e-08C7.49513 5.35324e-08 5.68876 0.547957 4.15231 1.57458C2.61586 2.6012 1.41835 4.06038 0.711198 5.76759C0.00404811 7.4748 -0.180974 9.35336 0.179527 11.1657C0.540029 12.9781 1.42986 14.6429 2.73651 15.9495C4.04315 17.2561 5.70791 18.146 7.52028 18.5065C9.33264 18.867 11.2112 18.682 12.9184 17.9748C14.6256 17.2677 16.0848 16.0701 17.1114 14.5337C18.138 12.9972 18.686 11.1909 18.686 9.343C18.6861 8.11602 18.4446 6.90104 17.9751 5.76743C17.5056 4.63383 16.8174 3.60381 15.9498 2.73621C15.0822 1.8686 14.0522 1.18041 12.9186 0.710926C11.785 0.241443 10.57 -0.000131293 9.343 5.35324e-08Z" fill="#949494"/>
</svg>
