<svg width="40" height="67" viewBox="0 0 40 67" fill="none" xmlns="http://www.w3.org/2000/svg">
<path d="M39.626 10.5979V66.3109L19.821 52.6849L0.0150146 66.3109V10.5979H39.626Z" fill="#3572CD"/>
<path d="M0.0150146 0H39.626V10.6H0.0150146V0Z" fill="#D4E1F4"/>
<path d="M31.999 29.058L25.908 34.996L27.346 43.38L19.817 39.421L12.288 43.38L13.726 34.996L7.63501 29.058L16.053 27.836L19.817 20.207L23.581 27.836L31.999 29.058Z" fill="#F3CE7D"/>
<path d="M0.0150146 10.5979V66.3109L4.55701 63.1859V10.5979H0.0150146Z" fill="#2F61AB"/>
<path d="M0.0150146 0H4.55701V10.6H0.0150146V0Z" fill="#B6C7DD"/>
<path d="M23.454 2.7251H25.271V7.5701H23.454V2.7251Z" fill="#D4E1F4"/>
<path d="M18.913 2.7251H20.73V7.5701H18.913V2.7251Z" fill="#D4E1F4"/>
<path d="M14.371 2.7251H16.188V7.5701H14.371V2.7251Z" fill="#D4E1F4"/>
<path d="M9.82898 2.7251H11.646V7.5701H9.82898V2.7251Z" fill="#D4E1F4"/>
<path d="M5.28699 2.7251H7.10399V7.5701H5.28699V2.7251Z" fill="#D4E1F4"/>
<path d="M27.996 2.7251H29.813V7.5701H27.996V2.7251Z" fill="#D4E1F4"/>
<path d="M32.538 2.7251H34.3549V7.5701H32.538V2.7251Z" fill="#D4E1F4"/>
<path d="M3.62097 13.928H5.43797V16.199H3.62097V13.928Z" fill="white"/>
<path d="M3.62097 18.0161H5.43797V32.3991H3.62097V18.0161Z" fill="white"/>
</svg>
