<svg width="70" height="67" viewBox="0 0 70 67" fill="none" xmlns="http://www.w3.org/2000/svg">
<path d="M38.585 24.2603C38.2652 24.2603 37.9584 24.1333 37.7322 23.9071C37.5061 23.6809 37.379 23.3742 37.379 23.0543V10.9983C37.3912 9.88229 37.1818 8.77494 36.7632 7.74036C36.3445 6.70578 35.7248 5.76451 34.9399 4.97103C34.155 4.17756 33.2205 3.54763 32.1906 3.11772C31.1606 2.68781 30.0556 2.46645 28.9395 2.46645C27.8234 2.46645 26.7184 2.68781 25.6885 3.11772C24.6585 3.54763 23.724 4.17756 22.9391 4.97103C22.1543 5.76451 21.5345 6.70578 21.1159 7.74036C20.6972 8.77494 20.4879 9.88229 20.5 10.9983V23.0543C20.491 23.368 20.36 23.6658 20.1349 23.8845C19.9098 24.1032 19.6084 24.2256 19.2945 24.2256C18.9807 24.2256 18.6792 24.1032 18.4541 23.8845C18.229 23.6658 18.098 23.368 18.089 23.0543V10.9983C18.0695 9.56108 18.3357 8.13428 18.8722 6.80079C19.4087 5.4673 20.2048 4.2537 21.2143 3.23045C22.2237 2.2072 23.4264 1.3947 24.7525 0.840134C26.0786 0.285572 27.5016 0 28.939 0C30.3764 0 31.7994 0.285572 33.1255 0.840134C34.4516 1.3947 35.6543 2.2072 36.6637 3.23045C37.6732 4.2537 38.4693 5.4673 39.0058 6.80079C39.5423 8.13428 39.8085 9.56108 39.789 10.9983V23.0543C39.789 23.3738 39.6622 23.6803 39.4365 23.9064C39.2107 24.1325 38.9045 24.2598 38.585 24.2603Z" fill="#DADCDE"/>
<path d="M40.992 66.4584H0L2.411 18.2324H38.581L40.992 66.4584Z" fill="#3876D3"/>
<path d="M50.6381 66.4584H40.993L38.5811 18.2324H48.226L50.6381 66.4584Z" fill="#2F61AB"/>
<path d="M45.886 60.4324H45.814C45.5071 60.4314 45.2122 60.3135 44.9892 60.1026C44.7662 59.8917 44.632 59.6038 44.614 59.2974L42.198 18.3034C42.198 18.2794 42.198 18.2564 42.198 18.2324H44.612L47.019 59.1534C47.0288 59.3118 47.0072 59.4706 46.9555 59.6207C46.9038 59.7707 46.823 59.9091 46.7178 60.0279C46.6125 60.1467 46.4849 60.2436 46.3422 60.313C46.1994 60.3824 46.0444 60.423 45.886 60.4324Z" fill="#224D8B"/>
<path d="M69.928 66.4583H60.283L60.132 64.5093L57.871 35.1113H67.516L69.739 64.0003L69.928 66.4583Z" fill="#EBA72E"/>
<path d="M65.2261 60.4243C65.1855 60.4286 65.1448 60.4306 65.104 60.4303C64.8051 60.4303 64.5169 60.3194 64.2951 60.1189C64.0734 59.9184 63.9341 59.6427 63.9041 59.3453L63.8601 58.9143L61.492 35.2323C61.4888 35.1921 61.4878 35.1517 61.4891 35.1113H63.906L66.2751 58.8043L66.3051 59.1043C66.3369 59.4224 66.2411 59.7402 66.0388 59.9877C65.8365 60.2352 65.5441 60.3922 65.2261 60.4243Z" fill="#E09F2C"/>
<path d="M69.9319 66.4583H68.482L65.1089 61.3973L61.732 66.4583H60.282L60.132 64.5093L63.862 58.9153L64.102 58.5563C64.2122 58.3913 64.3615 58.2561 64.5366 58.1625C64.7116 58.069 64.907 58.02 65.1055 58.02C65.3039 58.02 65.4993 58.069 65.6744 58.1625C65.8494 58.2561 65.9987 58.3913 66.1089 58.5563L66.275 58.8053L69.74 64.0053L69.9319 66.4583Z" fill="#E09F2C"/>
<path d="M60.283 66.4583H28.936L31.347 35.1113H57.871L60.283 66.4583Z" fill="#F7B030"/>
<path d="M45.815 58.0182H43.404C41.8057 58.0166 40.2733 57.3811 39.143 56.251C38.0127 55.1209 37.3769 53.5886 37.375 51.9902V42.3452C37.3704 42.184 37.3981 42.0235 37.4566 41.8731C37.5151 41.7228 37.6032 41.5858 37.7156 41.4701C37.828 41.3544 37.9624 41.2624 38.111 41.1996C38.2595 41.1368 38.4192 41.1045 38.5805 41.1045C38.7418 41.1045 38.9015 41.1368 39.05 41.1996C39.1986 41.2624 39.3331 41.3544 39.4455 41.4701C39.5579 41.5858 39.6459 41.7228 39.7044 41.8731C39.7629 42.0235 39.7907 42.184 39.786 42.3452V51.9902C39.7871 52.9492 40.1685 53.8686 40.8466 54.5467C41.5247 55.2248 42.4441 55.6061 43.403 55.6072H45.814C46.773 55.6061 47.6923 55.2248 48.3704 54.5467C49.0485 53.8686 49.43 52.9492 49.431 51.9902V42.3452C49.4264 42.184 49.4541 42.0235 49.5126 41.8731C49.5711 41.7228 49.6592 41.5858 49.7716 41.4701C49.884 41.3544 50.0184 41.2624 50.167 41.1996C50.3155 41.1368 50.4752 41.1045 50.6365 41.1045C50.7978 41.1045 50.9575 41.1368 51.106 41.1996C51.2546 41.2624 51.3891 41.3544 51.5015 41.4701C51.6139 41.5858 51.7019 41.7228 51.7604 41.8731C51.8189 42.0235 51.8467 42.184 51.842 42.3452V51.9902C51.8402 53.5882 51.2046 55.1202 50.0747 56.2503C48.9449 57.3803 47.413 58.0161 45.815 58.0182Z" fill="#E9EEF2"/>
<path d="M10.851 23.0542H13.262V30.2882H10.851V23.0542Z" fill="#DADCDE"/>
<path d="M12.057 24.2603C11.8986 24.2603 11.7418 24.2291 11.5955 24.1685C11.4491 24.1079 11.3162 24.0191 11.2042 23.9071C11.0922 23.7951 11.0034 23.6621 10.9428 23.5158C10.8822 23.3695 10.851 23.2127 10.851 23.0543V10.9983C10.8315 9.56108 11.0977 8.13428 11.6342 6.80079C12.1707 5.4673 12.9668 4.2537 13.9763 3.23045C14.9857 2.2072 16.1884 1.3947 17.5145 0.840134C18.8406 0.285572 20.2636 0 21.701 0C23.1383 0 24.5614 0.285572 25.8875 0.840134C27.2136 1.3947 28.4162 2.2072 29.4257 3.23045C30.4351 4.2537 31.2312 5.4673 31.7678 6.80079C32.3043 8.13428 32.5705 9.56108 32.551 10.9983V23.0543C32.5419 23.368 32.411 23.6658 32.1859 23.8845C31.9608 24.1032 31.6593 24.2256 31.3455 24.2256C31.0316 24.2256 30.7302 24.1032 30.5051 23.8845C30.28 23.6658 30.149 23.368 30.14 23.0543V10.9983C30.1521 9.88229 29.9428 8.77494 29.5241 7.74036C29.1054 6.70578 28.4857 5.76451 27.7009 4.97103C26.916 4.17756 25.9815 3.54763 24.9515 3.11772C23.9216 2.68781 22.8166 2.46645 21.7005 2.46645C20.5844 2.46645 19.4794 2.68781 18.4494 3.11772C17.4195 3.54763 16.485 4.17756 15.7001 4.97103C14.9152 5.76451 14.2955 6.70578 13.8768 7.74036C13.4581 8.77494 13.2488 9.88229 13.261 10.9983V23.0543C13.261 23.3738 13.1342 23.6803 12.9085 23.9064C12.6827 24.1325 12.3765 24.2598 12.057 24.2603Z" fill="#E9EEF2"/>
<path d="M15.6739 39.9342H8.43994V30.2892L12.0569 27.8772L15.6739 30.2882V39.9342Z" fill="#F7B030"/>
</svg>
